<svg xmlns="http://www.w3.org/2000/svg" width="1080" height="1920" viewBox="0 0 1080 1920"><defs><linearGradient id="bg" x2="1" y2="1"><stop stop-color="#071b35"/><stop offset=".55" stop-color="#123e5a"/><stop offset="1" stop-color="#0a756f"/></linearGradient><filter id="shadow"><feDropShadow dx="0" dy="8" stdDeviation="8" flood-opacity=".35"/></filter></defs><rect width="1080" height="1920" fill="url(#bg)"/><image href="https://v3b.fal.media/files/b/0aa57d24/wS7b9Ufv4KseMUJ49ldli_gWRF6fVD.png" x="0" y="0" width="1080" height="1920" preserveAspectRatio="xMidYMid slice" opacity=".22"/><circle cx="900" cy="100" r="260" fill="#52d6c8" opacity=".12"/><circle cx="110" cy="1750" r="300" fill="#ffcf70" opacity=".1"/><g font-family="Noto Sans CJK TC, Noto Sans, sans-serif" fill="#fff"><text x="70" y="105" font-size="54" font-weight="800">台灣家庭晨報</text><text x="72" y="160" font-size="28" fill="#bceee8">2026 年 8 月 8 日・週六｜資料即時查核</text><rect x="60" y="205" width="960" height="270" rx="28" fill="#ffffff" opacity=".12" filter="url(#shadow)"/><text x="90" y="260" font-size="30" fill="#ffcf70" font-weight="700">台北・台灣</text><text x="90" y="310" font-size="34" font-weight="700">台美研究機構肯定 AI 駕駛無人機測試</text><text x="90" y="365" font-size="25">台北時報報道，台美研究機構對 AI 駕駛</text><text x="90" y="402" font-size="25">無人機測試表示肯定，凸顯台灣無人系統</text><text x="90" y="439" font-size="25">與人工智慧應用的合作進展。</text><text x="90" y="468" font-size="19" fill="#bceee8">來源：Taipei Times｜taipeitimes.com</text><rect x="60" y="505" width="960" height="270" rx="28" fill="#ffffff" opacity=".12" filter="url(#shadow)"/><text x="90" y="560" font-size="30" fill="#ffcf70" font-weight="700">布里斯本・昆士蘭</text><text x="90" y="610" font-size="34" font-weight="700">Centenary Pool 將關閉進行奧運升級</text><text x="90" y="665" font-size="25">ABC 報道，布里斯本 Centenary Pool 營運</text><text x="90" y="702" font-size="25">67 年後將關閉，配合大型升級工程，為</text><text x="90" y="739" font-size="25">2032 年布里斯本奧運相關建設作準備。</text><text x="90" y="768" font-size="19" fill="#bceee8">來源：ABC News｜abc.net.au</text><rect x="60" y="805" width="960" height="315" rx="28" fill="#ffffff" opacity=".12" filter="url(#shadow)"/><text x="90" y="860" font-size="30" fill="#ffcf70" font-weight="700">美國北加州・灣區</text><text x="90" y="910" font-size="34" font-weight="700">灣區 COVID 水平快速上升</text><text x="90" y="965" font-size="25">舊金山紀事報指出，隨學校開學，灣區</text><text x="90" y="1002" font-size="25">COVID 水平快速上升；居民應留意當地</text><text x="90" y="1039" font-size="25">衛生單位最新建議與個人防護。</text><text x="90" y="1090" font-size="19" fill="#bceee8">來源：San Francisco Chronicle｜sfchronicle.com</text><text x="70" y="1185" font-size="38" font-weight="800">UQ 未來 7 天官方活動</text><text x="72" y="1225" font-size="21" fill="#bceee8">8/8–8/14｜昆士蘭大學官方活動頁</text><rect x="60" y="1260" width="960" height="175" rx="22" fill="#ffffff" opacity=".14"/><text x="85" y="1305" font-size="26" font-weight="700">8/9（日）1:45–4:00｜Friends of Antiquity</text><text x="85" y="1342" font-size="22">戰時密碼與藝術史；Room E215, Forgan Smith</text><text x="85" y="1377" font-size="22">Building, UQ St Lucia（$10）</text><rect x="60" y="1460" width="960" height="175" rx="22" fill="#ffffff" opacity=".14"/><text x="85" y="1505" font-size="26" font-weight="700">8/11（二）6:15–7:30｜Beyond the Game</text><text x="85" y="1542" font-size="22">UQ 專家與 Queensland Firebirds：心理與營養</text><text x="85" y="1577" font-size="22">實用分享；官方頁列出活動場地／報名資訊</text><rect x="60" y="1660" width="960" height="175" rx="22" fill="#ffffff" opacity=".14"/><text x="85" y="1705" font-size="26" font-weight="700">8/13（四）2:00–3:00｜Beyond Cyberbullying</text><text x="85" y="1742" font-size="22">網路安全風險網上講座：AI 傷害、勒索與</text><text x="85" y="1777" font-size="22">冒充等學校與家庭需面對的議題</text><text x="70" y="1875" font-size="19" fill="#bceee8">UQ 官方活動：https://alumni.uq.edu.au/event/1725/alumni-events</text></g></svg>